<svg xmlns="http://www.w3.org/2000/svg" viewBox="0 0 32 32" shape-rendering="crispEdges" role="img" aria-label="Pixel Mario victory">
  <path fill="#000000" d="M11 3h11v2h3v3h-5v2h4v3h2v8h-4v-4h-2v4h2v3h3v3h-6v-3h-3v3H8v-3h4v-4H9v-6h2v-4H8V5h3zM24 2h3v7h-3z"/>
  <path fill="#d61f1f" d="M12 3h9v2h3v2H11V5h1zM10 13h11v4H10zM8 17h5v3H8zM18 17h4v3h-4zM23 3h3v4h-3z"/>
  <path fill="#f2a45f" d="M12 7h7v2h3v3h-2v2h-7v-2h-2V9h1zM21 13h3v3h-3zM6 14h3v3H6z"/>
  <path fill="#8a4a1f" d="M10 8h2v2h-2zM18 8h3v2h-3zM12 12h8v2h-8zM8 24h6v3H8zM19 24h6v3h-6z"/>
  <path fill="#2453c9" d="M12 14h3v3h2v-3h3v8h-3v-4h-2v6h-4v-5H9v-2h3z"/>
  <path fill="#ffd04d" d="M15 16h2v2h-2z"/>
  <path fill="#ffffff" d="M5 14h4v3H5zM21 12h4v3h-4zM20 8h2v2h-2z"/>
</svg>
